<?xml version="1.0" standalone="no"?>
<!DOCTYPE svg PUBLIC "-//W3C//DTD SVG 20010904//EN"
 "http://www.w3.org/TR/2001/REC-SVG-20010904/DTD/svg10.dtd">
<svg version="1.0" xmlns="http://www.w3.org/2000/svg"
 width="622.000000pt" height="720.000000pt" viewBox="0 0 622.000000 720.000000"
 preserveAspectRatio="xMidYMid meet">

<g transform="translate(0.000000,720.000000) scale(0.100000,-0.100000)"
fill="#000000" stroke="none">
<path d="M0 3600 l0 -3600 3110 0 3110 0 0 3600 0 3600 -3110 0 -3110 0 0
-3600z m4991 3474 c118 -72 159 -88 289 -115 131 -26 198 -54 206 -84 3 -12 1
-40 -5 -61 -28 -104 -95 -134 -343 -154 -211 -17 -265 -36 -352 -123 l-51 -52
-150 -5 -150 -5 -48 -34 c-44 -32 -55 -35 -144 -41 -78 -5 -98 -10 -110 -26
-7 -10 -27 -34 -44 -51 -27 -30 -36 -33 -86 -33 -31 0 -88 10 -127 21 -72 22
-109 22 -282 3 -50 -6 -94 6 -94 26 0 4 11 22 25 38 20 24 38 32 93 42 93 16
122 32 160 90 19 28 55 65 85 85 43 28 59 48 92 112 l40 78 80 18 c413 95 595
149 628 185 9 9 17 35 19 57 3 34 8 42 43 62 69 39 117 32 226 -33z m502 -383
c35 -14 48 -62 45 -167 l-3 -89 126 -210 c69 -115 176 -295 238 -400 106 -180
126 -206 230 -299 63 -57 83 -126 52 -189 -30 -62 -168 -199 -249 -246 -323
-188 -855 -302 -1037 -222 -53 24 -77 60 -100 150 -48 186 -94 294 -213 497
-222 381 -296 475 -430 548 -81 44 -124 85 -146 138 -18 42 -20 39 58 68 l58
22 22 -21 c12 -12 25 -21 29 -21 4 0 7 24 7 53 l0 54 85 10 c64 8 95 17 125
37 60 39 121 50 213 38 108 -14 136 -4 222 78 114 110 141 117 366 95 85 -8
169 -15 187 -15 32 0 32 1 30 42 -3 37 0 42 22 49 35 10 36 10 63 0z m-3449
-150 c128 -34 227 -92 332 -196 50 -49 113 -120 140 -156 103 -139 186 -213
253 -224 46 -8 60 -21 71 -70 10 -45 2 -49 -138 -63 -143 -15 -203 -44 -292
-140 -76 -82 -64 -79 -175 -46 -45 14 -93 19 -195 18 -130 0 -137 -1 -202 -31
-192 -90 -282 -286 -205 -446 33 -66 115 -145 190 -181 62 -31 171 -56 244
-56 115 0 277 52 336 108 35 33 89 121 112 185 10 26 19 47 20 47 2 0 37 7 79
15 149 28 318 39 408 27 45 -7 89 -19 97 -26 19 -20 26 -109 11 -146 -31 -74
-106 -106 -368 -155 -231 -42 -340 -73 -459 -130 -109 -51 -162 -87 -244 -162
-154 -143 -221 -298 -198 -460 30 -215 219 -386 496 -449 77 -18 287 -25 377
-14 l40 5 17 -110 c10 -61 25 -136 34 -167 l16 -56 -38 -102 c-21 -57 -43
-105 -50 -107 -31 -12 -175 144 -243 262 -18 31 -45 65 -61 74 -16 10 -82 28
-146 41 -195 37 -412 95 -528 140 -61 23 -149 56 -197 74 -78 27 -87 33 -81
51 4 11 7 132 7 268 l1 248 32 16 c41 20 111 95 94 101 -7 2 -22 -5 -34 -16
-45 -41 -92 -62 -140 -62 -114 0 -207 84 -207 188 0 13 17 41 39 65 38 41 41
42 103 42 44 0 81 -7 121 -24 32 -13 61 -20 65 -17 4 4 -12 25 -35 47 l-42 39
-95 0 c-75 0 -98 4 -115 18 -26 21 -43 107 -39 192 l3 61 40 -38 c22 -21 73
-76 113 -121 70 -78 92 -95 92 -71 0 34 -237 311 -292 340 -19 10 -20 8 -13
-122 6 -105 5 -130 -5 -124 -39 24 -404 554 -464 673 -58 116 -69 162 -64 270
3 86 7 104 36 158 37 68 96 134 121 134 9 0 27 -7 39 -16 32 -22 44 -14 27 20
-19 36 -19 46 3 63 32 27 135 93 143 93 5 0 20 -18 34 -40 16 -25 33 -40 45
-40 20 0 20 1 1 48 -10 26 -21 54 -25 62 -5 12 30 32 154 88 238 108 355 134
590 127 93 -3 159 -10 214 -24z m2098 -643 c7 -13 18 -39 25 -58 11 -32 10
-37 -11 -60 -13 -14 -29 -35 -35 -47 -9 -18 -20 -23 -51 -23 -35 0 -39 3 -50
36 -17 50 0 103 45 143 42 37 60 39 77 9z m206 -102 c34 -17 122 -140 122
-170 0 -2 -26 -14 -57 -26 -32 -12 -77 -32 -100 -46 -23 -13 -44 -24 -47 -24
-9 0 -116 167 -116 182 0 20 59 73 95 86 42 15 72 14 103 -2z m-1427 -25 c68
-27 147 -86 170 -126 25 -44 34 -105 16 -105 -8 0 -25 -8 -38 -19 l-23 -18 22
-37 c12 -20 22 -39 22 -41 0 -19 -65 -36 -185 -49 -77 -9 -178 -23 -225 -31
-134 -24 -136 -23 -166 38 -14 28 -49 89 -76 134 l-51 83 26 39 c23 34 87 94
125 115 7 5 37 17 65 27 72 27 237 21 318 -10z m1240 -153 c74 -101 101 -208
65 -262 -41 -63 -115 -80 -186 -44 -42 21 -47 28 -68 96 -13 39 -27 72 -32 72
-15 0 -22 -59 -11 -93 14 -40 58 -84 124 -121 32 -18 54 -39 62 -60 15 -35 36
-55 80 -76 53 -25 85 -51 85 -69 0 -34 26 -51 119 -75 64 -17 103 -34 121 -51
43 -42 216 -78 239 -51 10 11 19 12 42 4 34 -12 33 -11 15 -46 -19 -38 -51
-173 -80 -332 -74 -406 -132 -602 -251 -845 -80 -163 -153 -274 -264 -402 -68
-79 -223 -214 -323 -281 -26 -18 -51 -40 -57 -49 -16 -30 -96 10 -170 86 -333
342 -424 502 -362 636 10 22 70 93 138 160 133 134 206 236 294 415 109 219
171 459 173 665 1 132 -5 149 -111 280 -83 102 -110 167 -93 223 26 91 109
186 204 232 51 25 73 30 138 30 l78 0 31 -42z m-1972 7 c139 -37 251 -126 290
-229 26 -70 22 -113 -16 -193 -28 -58 -100 -131 -160 -161 -219 -112 -550 -30
-641 159 -31 63 -30 157 2 224 24 52 101 132 154 159 98 50 266 69 371 41z
m2331 -92 c11 -21 36 -63 55 -93 19 -30 35 -60 35 -67 0 -6 -38 -23 -85 -38
-76 -23 -93 -33 -153 -89 -118 -110 -140 -117 -198 -63 -32 29 -35 36 -25 55
6 12 29 31 50 41 45 24 66 62 80 150 11 70 20 85 65 108 43 23 75 31 118 32
33 1 40 -3 58 -36z m175 -313 c24 -52 44 -98 45 -101 1 -24 -251 -99 -330 -99
-79 0 -94 15 -88 92 4 52 9 63 44 99 47 49 94 75 172 94 103 25 107 23 157
-85z m55 -190 c4 -14 10 -44 13 -67 l7 -41 -59 -7 c-33 -4 -74 -4 -91 0 -34 7
-90 50 -90 69 0 28 120 77 179 73 28 -2 36 -7 41 -27z m-1551 0 c84 -42 187
-160 275 -312 53 -92 30 -140 -93 -197 -172 -79 -380 -100 -805 -83 -509 21
-563 17 -592 -53 -42 -101 88 -221 301 -276 80 -21 112 -24 285 -24 239 1 345
16 395 55 40 32 67 30 84 -6 20 -46 14 -63 -36 -92 -26 -15 -78 -57 -117 -93
-137 -129 -228 -160 -400 -139 -397 49 -643 284 -598 572 13 88 64 194 127
265 58 65 167 146 259 189 67 32 331 102 671 179 66 15 125 28 130 30 28 9 80
3 114 -15z m-976 -697 c4 -54 7 -115 7 -135 l0 -38 -42 17 c-57 22 -117 62
-140 94 -20 27 -43 108 -33 117 6 6 157 39 186 41 13 1 17 -16 22 -96z m260
68 c4 -4 4 -69 0 -145 l-6 -137 -96 7 c-53 4 -99 9 -103 11 -5 2 -8 66 -8 141
l0 138 103 -4 c56 -2 105 -7 110 -11z m520 -76 c-5 -135 -43 -178 -171 -191
-34 -4 -62 -5 -62 -2 0 2 6 27 14 54 8 27 20 78 27 114 18 98 18 99 102 102
39 2 77 3 82 2 6 0 9 -33 8 -79z m-233 7 c0 -76 -23 -179 -45 -202 -10 -10
-45 -15 -110 -18 l-95 -4 0 43 c0 24 3 88 7 141 l6 97 31 4 c17 2 70 5 119 5
l87 2 0 -68z m554 -570 c2 -4 -11 -20 -29 -35 -42 -34 -51 -74 -36 -162 22
-127 81 -227 244 -415 55 -63 116 -136 135 -162 30 -39 53 -55 154 -103 66
-32 118 -58 116 -60 -10 -9 -137 -55 -152 -55 -34 0 -172 105 -282 215 -178
178 -289 366 -328 557 -17 83 -20 156 -8 175 11 17 60 35 117 43 28 4 53 8 57
9 4 0 9 -3 12 -7z m-256 -760 c15 -20 16 -54 0 -70 -14 -14 -68 -16 -68 -2 0
6 -4 10 -10 10 -6 0 -10 -28 -10 -63 0 -57 -2 -65 -24 -77 -14 -7 -31 -10 -39
-7 -8 3 -37 -6 -63 -20 -37 -18 -60 -23 -91 -20 -33 3 -46 0 -60 -15 -9 -10
-26 -18 -37 -16 -17 2 -22 11 -24 48 -2 25 -8 50 -14 55 -7 7 -9 -6 -5 -43 5
-44 3 -56 -13 -72 -11 -11 -29 -20 -40 -20 -20 0 -26 13 -33 75 -2 18 -5 9 -6
-21 -1 -60 -18 -79 -60 -71 -20 4 -31 2 -35 -8 -6 -18 -81 -38 -111 -31 -17 4
-27 -1 -40 -20 -13 -20 -23 -25 -48 -22 -29 3 -32 6 -35 41 -3 34 -6 37 -25
31 -34 -10 -42 -22 -42 -62 0 -30 -4 -38 -26 -46 -39 -13 -59 -2 -59 35 0 22
-5 32 -19 36 -30 8 -34 34 -11 65 19 26 21 37 14 107 -6 74 -5 80 15 91 12 6
32 10 44 8 19 -3 22 -10 25 -53 4 -96 11 -115 37 -115 35 0 40 16 37 106 -4
88 2 100 53 106 l30 3 3 -67 c2 -38 7 -68 12 -68 6 0 10 4 10 9 0 12 61 32
102 33 18 1 42 7 53 13 11 7 45 18 75 25 30 6 72 18 93 27 29 13 43 14 62 5
17 -8 26 -8 31 -1 11 18 107 59 137 59 16 0 38 5 49 11 34 18 111 37 133 32
11 -3 26 -12 33 -21z m912 -41 c0 -5 3 -23 6 -40 l7 -31 -56 0 c-31 0 -58 4
-61 9 -7 10 18 33 59 54 35 19 45 20 45 8z m-3430 -181 c414 -46 866 -172
1179 -329 80 -41 81 -41 69 -69 -17 -39 -59 -102 -68 -102 -4 0 -60 27 -123
60 -134 68 -225 102 -461 170 -294 84 -508 120 -713 120 -62 0 -113 2 -113 5
0 11 53 110 73 137 12 16 28 26 36 24 9 -2 63 -10 121 -16z m2481 -141 c26
-26 21 -59 -13 -79 -23 -12 -31 -13 -48 -2 -23 14 -25 6 -21 -75 3 -47 -15
-63 -68 -63 -16 0 -33 -4 -36 -10 -3 -5 -31 -17 -62 -26 -42 -12 -61 -13 -79
-5 -18 8 -25 7 -32 -4 -24 -43 -146 -71 -172 -40 -11 13 -18 9 -51 -29 -43
-49 -115 -84 -189 -93 -43 -5 -49 -3 -55 17 -5 16 0 29 18 48 22 25 24 33 19
100 -2 39 -6 72 -8 72 -2 0 -13 -5 -23 -12 -15 -9 -23 -9 -35 1 -60 50 48 135
187 148 72 6 103 -5 118 -44 7 -18 5 -33 -6 -55 -15 -30 -13 -48 6 -48 5 0 9
8 9 18 0 38 95 92 159 92 16 0 51 11 78 24 26 13 66 28 87 32 21 4 64 17 95
29 71 29 96 30 122 4z m-2591 -58 c0 -5 -11 -23 -25 -40 -27 -31 -44 -32 -77
-3 -38 32 -19 49 60 51 23 0 42 -3 42 -8z m340 -27 c225 -42 481 -110 635
-171 120 -47 121 -49 91 -104 -46 -83 -105 -235 -121 -308 -43 -204 10 -318
170 -367 28 -8 177 -33 332 -55 446 -62 593 -107 881 -267 63 -35 82 -50 82
-67 0 -31 -20 -85 -32 -85 -5 0 -68 27 -140 61 -164 77 -229 99 -287 99 -43 0
-82 -13 -71 -23 3 -3 58 -19 123 -36 254 -66 355 -133 372 -246 9 -57 -8 -75
-76 -82 l-56 -6 -31 45 c-46 67 -126 134 -185 156 -65 25 -181 45 -227 40
l-35 -3 30 -16 c17 -9 71 -26 120 -39 193 -46 275 -109 275 -209 0 -24 -7 -34
-30 -46 -40 -21 -54 -20 -199 17 -130 33 -153 34 -381 28 -89 -2 -126 1 -165
14 -35 12 -106 20 -235 26 -262 12 -605 66 -737 116 -37 14 -87 32 -110 40
-45 16 -208 88 -233 104 -8 5 -31 18 -50 29 -56 31 -143 124 -178 188 -79 149
-91 357 -36 633 34 170 125 412 197 522 l31 48 71 -6 c38 -3 131 -17 205 -30z
m861 -266 c22 -12 39 -25 39 -29 0 -12 -29 -19 -76 -19 -42 0 -44 1 -44 28 0
49 21 54 81 20z"/>
<path d="M5270 6896 c0 -8 12 -19 28 -24 l27 -9 -41 -41 c-36 -36 -48 -42 -84
-42 -37 0 -119 -35 -107 -46 1 -2 45 2 96 8 87 11 95 14 127 47 19 20 34 41
34 48 0 6 3 18 6 27 4 10 -5 20 -31 30 -46 20 -55 20 -55 2z"/>
<path d="M4780 6825 c-30 -19 -62 -35 -71 -35 -9 0 -21 -6 -27 -12 -10 -13
-33 -140 -26 -147 1 -2 17 7 35 19 28 20 31 27 26 60 l-5 37 92 44 c109 51
104 48 86 59 -27 17 -55 11 -110 -25z"/>
<path d="M4122 6783 c-29 -6 -36 -22 -22 -57 9 -24 14 -27 52 -24 41 3 43 5
46 37 5 47 -12 56 -76 44z"/>
<path d="M4363 6593 c-12 -2 -27 -11 -34 -20 -11 -13 -10 -18 10 -34 13 -11
36 -19 52 -19 26 0 29 3 29 34 0 22 -6 36 -16 40 -9 3 -16 5 -17 5 -1 -1 -12
-4 -24 -6z"/>
<path d="M3892 6514 c-27 -19 -46 -83 -33 -117 6 -14 23 -29 42 -36 41 -14 48
-7 21 22 -23 24 -29 52 -13 61 11 7 20 76 11 81 -4 2 -16 -3 -28 -11z"/>
<path d="M4050 6515 c-9 -11 -10 -25 -3 -48 7 -26 13 -31 33 -28 60 8 75 36
40 71 -24 24 -53 26 -70 5z"/>
<path d="M5405 6448 c20 -96 125 -296 277 -531 107 -167 138 -228 138 -281 0
-113 -141 -195 -540 -312 -118 -35 -178 -47 -252 -51 -90 -5 -101 -4 -151 20
-69 34 -94 69 -200 287 -83 168 -137 257 -257 423 -47 65 -101 110 -115 96 -4
-4 24 -42 107 -147 58 -74 148 -220 188 -306 123 -269 166 -334 251 -381 49
-27 62 -29 145 -28 109 2 243 33 459 105 246 82 378 163 403 246 19 64 -9 136
-123 308 -53 82 -119 196 -147 254 -133 279 -160 330 -175 330 -11 0 -13 -7
-8 -32z"/>
<path d="M4807 6390 c-42 -33 -93 -50 -149 -50 -68 0 -94 -14 -55 -29 74 -28
186 1 227 59 32 45 22 55 -23 20z"/>
<path d="M4530 6069 c0 -6 40 -50 88 -98 49 -47 100 -102 114 -121 63 -87 115
-207 158 -368 22 -80 53 -137 70 -127 16 10 -44 201 -106 332 -46 100 -130
235 -185 297 -60 69 -139 117 -139 85z"/>
<path d="M5960 5295 c-88 -18 -255 -67 -376 -111 -54 -20 -130 -46 -169 -59
-105 -34 -229 -82 -277 -106 -61 -30 -148 -97 -148 -113 0 -12 87 -42 96 -33
2 2 -5 12 -16 22 -11 10 -20 22 -20 27 0 23 360 172 606 251 202 65 310 90
386 91 67 1 81 9 56 34 -15 15 -54 14 -138 -3z"/>
<path d="M5407 5265 c-49 -18 -90 -48 -111 -81 -27 -39 -12 -40 42 -2 60 44
109 60 170 58 65 -3 72 -2 72 14 0 28 -107 35 -173 11z"/>
<path d="M1395 4699 c-36 -10 -82 -55 -87 -84 -3 -20 5 -22 47 -11 15 5 25 -2
40 -26 22 -35 42 -43 81 -34 32 8 30 22 -3 31 -38 9 -53 23 -53 49 0 17 12 27
53 45 49 22 50 24 27 31 -33 10 -68 10 -105 -1z"/>
<path d="M2336 5359 c-10 -51 -8 -59 18 -59 37 0 76 18 76 34 0 22 -40 56 -66
56 -16 0 -23 -8 -28 -31z"/>
<path d="M2980 2990 c-8 -5 -22 -7 -31 -5 -31 10 -40 -18 -32 -97 6 -55 12
-73 23 -73 11 0 16 16 20 65 3 36 9 71 13 78 11 17 36 15 43 -3 7 -17 30 -20
39 -5 3 6 3 19 0 30 -7 22 -48 27 -75 10z"/>
<path d="M2780 2938 l-45 -23 0 -64 c0 -83 12 -92 89 -68 34 11 56 24 56 33 0
17 0 17 -43 -1 -42 -17 -57 -19 -57 -5 0 5 18 14 40 20 46 12 60 33 60 89 0
38 -2 41 -28 41 -15 0 -48 -10 -72 -22z m60 -48 c0 -23 -5 -31 -24 -36 -47
-11 -63 23 -24 50 34 24 48 20 48 -14z"/>
<path d="M2804 2885 c-9 -22 1 -29 15 -11 8 10 9 16 1 21 -5 3 -13 -1 -16 -10z"/>
<path d="M2220 2826 l0 -94 -45 -17 c-67 -26 -74 -19 -77 77 -3 75 -5 83 -23
83 -19 0 -20 -6 -17 -88 3 -77 1 -91 -15 -102 -17 -13 -17 -15 5 -30 16 -12
22 -26 22 -51 0 -31 3 -35 23 -32 19 3 22 10 25 49 3 42 6 47 30 53 15 3 37 8
49 12 19 5 22 2 25 -33 2 -30 7 -38 23 -38 26 0 29 26 20 183 -6 111 -9 122
-26 122 -17 0 -19 -8 -19 -94z"/>
<path d="M2616 2881 c-15 -16 -22 -18 -42 -9 -18 8 -27 8 -40 -3 -9 -8 -26
-12 -37 -11 -11 2 -23 -1 -26 -6 -8 -13 2 -148 11 -157 16 -16 28 10 28 58 0
60 10 80 36 75 16 -3 19 -12 17 -53 -2 -47 10 -70 29 -59 4 3 8 25 8 49 0 54
18 97 39 93 12 -2 17 -18 19 -61 3 -59 10 -68 32 -42 13 15 9 112 -5 135 -10
17 -51 11 -69 -9z"/>
<path d="M2337 2823 c-33 -9 -51 -109 -27 -154 20 -37 111 -13 124 33 9 35 7
87 -4 109 -11 19 -48 24 -93 12z m61 -79 c-5 -78 -53 -88 -64 -15 -6 39 10 61
43 61 22 0 24 -3 21 -46z"/>
<path d="M2352 2738 c2 -18 8 -33 13 -33 6 0 11 15 13 33 3 24 -1 32 -13 32
-12 0 -16 -8 -13 -32z"/>
<path d="M2920 2615 c-34 -12 -35 -14 -38 -71 -4 -71 4 -104 23 -104 11 0 15
12 15 49 0 87 34 136 65 95 16 -23 39 -7 33 22 -4 23 -48 27 -98 9z"/>
<path d="M2790 2581 c-14 -5 -40 -16 -58 -25 -33 -17 -33 -17 -30 -84 l3 -67
40 -3 c27 -2 51 4 73 18 40 25 34 44 -8 23 -16 -8 -40 -13 -52 -11 -18 3 -13
7 22 19 39 13 47 21 60 57 21 61 2 88 -50 73z m20 -66 c0 -18 -7 -28 -26 -35
-35 -14 -44 -13 -51 5 -8 21 25 55 54 55 18 0 23 -5 23 -25z"/>
<path d="M2760 2504 c0 -9 5 -14 12 -12 18 6 21 28 4 28 -9 0 -16 -7 -16 -16z"/>
<path d="M2320 2564 c-8 -3 -41 -17 -72 -31 -46 -21 -58 -31 -58 -50 0 -29 7
-29 37 -1 13 12 25 20 27 17 2 -2 7 -55 11 -116 7 -111 7 -113 -14 -113 -15 0
-21 -6 -21 -21 0 -19 4 -20 43 -14 67 10 144 52 172 93 32 47 33 87 3 103 -13
6 -25 13 -27 15 -2 2 8 17 22 34 26 30 27 49 4 78 -9 12 -95 16 -127 6z m84
-37 c29 -21 15 -50 -39 -79 -27 -14 -53 -24 -57 -22 -13 8 -9 102 5 107 24 10
73 7 91 -6z m21 -131 c18 -13 18 -14 -1 -47 -21 -36 -93 -84 -107 -70 -4 4 -7
32 -5 62 3 47 6 54 28 60 40 11 65 10 85 -5z"/>
<path d="M2327 2513 c-10 -9 -9 -51 1 -57 5 -3 23 4 41 15 27 16 31 22 21 34
-13 15 -51 20 -63 8z"/>
<path d="M2343 2383 c-15 -6 -17 -69 -3 -78 14 -9 85 59 76 73 -7 12 -50 15
-73 5z"/>
<path d="M2595 2521 c-60 -19 -83 -40 -86 -78 -2 -21 -2 -52 1 -68 5 -27 9
-30 45 -33 41 -2 105 27 105 48 0 14 -13 13 -46 -5 -32 -16 -74 -21 -58 -6 5
5 26 14 46 20 29 10 39 20 48 47 22 66 2 94 -55 75z m25 -66 c0 -23 -29 -45
-60 -45 -18 0 -18 32 0 50 29 29 60 26 60 -5z"/>
<path d="M2575 2449 c-4 -6 -5 -13 -2 -16 7 -7 27 6 27 18 0 12 -17 12 -25 -2z"/>
</g>
</svg>
