<?xml version="1.0" standalone="no"?>
<!DOCTYPE svg PUBLIC "-//W3C//DTD SVG 20010904//EN"
 "http://www.w3.org/TR/2001/REC-SVG-20010904/DTD/svg10.dtd">
<svg version="1.0" xmlns="http://www.w3.org/2000/svg"
 width="920.000000pt" height="1064.000000pt" viewBox="0 0 920.000000 1064.000000"
 preserveAspectRatio="xMidYMid meet">

<g transform="translate(0.000000,1064.000000) scale(0.100000,-0.100000)"
fill="#000000" stroke="none">
<path d="M0 5320 l0 -5320 4600 0 4600 0 0 5320 0 5320 -4600 0 -4600 0 0
-5320z m7267 5196 c28 -14 87 -47 131 -75 127 -82 214 -117 359 -146 216 -43
332 -83 347 -120 17 -46 -10 -156 -51 -205 -61 -73 -163 -102 -443 -125 -203
-17 -300 -32 -363 -59 -58 -24 -159 -100 -204 -154 l-42 -50 -215 -4 -214 -4
-48 -32 c-112 -73 -148 -85 -280 -90 l-123 -5 -30 -48 c-16 -26 -49 -62 -73
-79 -42 -31 -45 -32 -123 -26 -44 3 -118 17 -165 31 -122 37 -204 41 -324 16
-114 -24 -135 -25 -187 -9 -52 15 -52 45 -1 99 34 37 44 41 122 55 160 27 176
36 250 144 45 66 67 86 142 134 59 37 101 97 138 195 10 25 29 54 41 63 14 10
106 35 218 59 368 77 711 173 789 221 48 29 62 56 62 115 0 60 13 73 104 105
70 24 122 22 183 -6z m880 -650 c31 -36 47 -126 37 -206 -17 -138 -45 -80 458
-923 82 -139 173 -290 200 -337 62 -104 74 -118 169 -190 95 -73 142 -152 143
-239 0 -68 -19 -108 -84 -176 -26 -27 -74 -79 -106 -114 -73 -79 -148 -133
-284 -204 -492 -260 -1220 -398 -1460 -277 -75 38 -115 113 -154 287 -49 221
-156 442 -441 913 -140 232 -203 319 -305 420 -75 76 -114 106 -188 145 -52
28 -114 69 -138 93 -40 38 -94 128 -94 158 0 6 28 21 63 34 34 12 77 29 95 38
33 15 33 15 73 -24 l39 -38 0 86 0 85 38 7 c20 3 62 6 92 6 81 1 135 16 190
54 89 61 122 66 385 55 125 -5 147 5 264 126 110 113 157 137 276 143 50 2
193 -6 319 -17 126 -12 235 -21 243 -21 11 0 14 13 11 62 l-3 63 35 12 c49 18
100 9 127 -21z m-5312 -166 c261 -30 486 -132 664 -304 40 -39 143 -158 228
-264 191 -238 255 -292 381 -322 34 -8 58 -20 66 -34 19 -29 39 -117 29 -126
-12 -11 -132 -30 -190 -30 -81 0 -198 -26 -271 -61 -67 -32 -177 -131 -248
-223 l-30 -40 -110 32 c-254 73 -479 70 -653 -9 -158 -72 -289 -229 -321 -386
-26 -124 11 -266 95 -369 72 -88 207 -172 345 -216 66 -20 94 -23 235 -22 132
0 174 4 240 22 213 58 322 158 411 375 17 44 36 83 40 87 12 12 272 56 419 71
129 13 294 7 385 -14 47 -10 57 -17 72 -47 23 -44 24 -147 2 -198 -48 -115
-141 -153 -584 -233 -320 -58 -502 -113 -690 -210 -282 -145 -495 -369 -577
-607 -23 -66 -27 -93 -27 -192 0 -126 13 -184 65 -294 108 -226 380 -408 707
-473 95 -19 418 -25 524 -10 67 10 57 28 83 -156 9 -65 27 -162 41 -215 15
-55 24 -112 21 -132 -3 -19 -27 -93 -55 -165 -37 -96 -55 -131 -69 -133 -25
-4 -152 115 -234 218 -35 45 -89 123 -119 173 -42 70 -64 97 -95 114 -24 13
-113 36 -220 58 -388 78 -671 157 -881 245 -49 22 -136 55 -192 74 -56 19
-106 37 -110 40 -4 2 -2 69 5 148 13 160 15 370 4 497 -11 132 -7 148 44 170
60 26 169 141 151 158 -3 4 -19 -3 -34 -15 -120 -94 -181 -118 -267 -107 -154
21 -252 114 -262 248 -4 53 -2 67 19 97 13 19 46 50 73 69 48 32 53 33 130 29
44 -2 96 -12 115 -21 62 -28 112 -47 126 -47 25 0 15 25 -23 62 -66 63 -89 69
-235 69 l-130 -1 -28 30 c-15 16 -30 43 -33 59 -11 53 -30 301 -24 307 9 10
87 -58 147 -128 95 -111 218 -233 227 -225 24 25 -150 250 -321 415 -65 61
-121 112 -127 112 -12 0 -12 -69 3 -232 6 -76 8 -141 4 -145 -19 -19 -239 275
-505 676 -240 361 -301 501 -301 691 0 119 23 205 78 297 49 82 128 173 149
173 9 0 39 -14 69 -30 29 -17 55 -27 58 -22 3 5 -6 33 -21 62 l-27 53 35 29
c53 46 196 138 213 138 8 0 27 -21 42 -47 31 -55 50 -73 77 -73 16 0 19 5 13
31 -3 17 -18 58 -33 91 -15 34 -22 62 -17 67 5 5 63 32 129 61 66 29 149 67
185 85 157 78 318 120 575 149 69 7 256 5 340 -4z m3284 -985 c17 -20 31 -46
31 -58 0 -12 7 -33 16 -45 15 -22 14 -25 -23 -65 -21 -23 -45 -57 -52 -74 -13
-32 -15 -33 -76 -33 l-62 0 -11 39 c-25 81 -12 144 41 200 30 32 84 71 98 71
4 0 21 -16 38 -35z m-1975 -145 c142 -20 263 -72 363 -156 57 -49 88 -104 98
-177 5 -40 4 -48 -12 -53 -44 -14 -93 -38 -93 -45 0 -5 14 -30 30 -56 62 -98
40 -110 -245 -139 -82 -8 -230 -28 -328 -45 -98 -17 -185 -28 -193 -25 -8 3
-30 39 -49 81 -19 42 -59 114 -89 160 -31 47 -65 103 -76 125 l-21 40 30 43
c80 117 223 211 366 241 87 18 123 19 219 6z m2292 -9 c48 -29 164 -202 164
-243 0 -7 -35 -27 -77 -43 -43 -16 -105 -44 -139 -62 -33 -18 -67 -33 -76 -33
-8 0 -53 58 -101 129 l-85 128 18 31 c57 93 215 142 296 93z m-302 -242 c26
-28 65 -90 89 -137 39 -79 42 -91 42 -166 0 -99 -21 -136 -99 -172 -84 -39
-176 -28 -241 30 -28 25 -39 46 -55 110 -12 43 -26 88 -32 99 -10 20 -11 20
-24 2 -20 -26 -17 -103 5 -151 22 -48 84 -104 164 -146 66 -36 107 -79 107
-113 0 -28 38 -59 125 -103 73 -36 115 -74 115 -102 0 -55 17 -64 194 -110
104 -26 124 -35 161 -69 47 -43 74 -53 210 -77 49 -8 92 -17 94 -19 2 -3 16 4
31 15 34 24 68 25 97 2 l23 -17 -25 -50 c-27 -54 -79 -271 -115 -475 -162
-931 -387 -1452 -829 -1923 -71 -76 -261 -237 -356 -302 -32 -22 -81 -62 -109
-88 l-50 -48 -63 27 c-81 34 -131 70 -179 130 -22 26 -88 100 -148 163 -177
188 -285 330 -349 456 -61 120 -71 206 -36 302 19 50 45 81 205 244 157 160
196 206 274 325 269 410 421 871 424 1284 1 155 1 155 -31 220 -17 36 -74 117
-126 181 -168 205 -185 272 -109 428 35 72 169 208 237 240 93 44 156 60 247
60 l86 1 46 -51z m-2885 -9 c181 -51 332 -163 398 -298 34 -68 38 -84 38 -153
-1 -70 -4 -84 -44 -164 -102 -207 -302 -318 -571 -317 -416 0 -700 247 -641
554 17 85 58 154 137 227 95 89 232 151 383 172 81 11 217 1 300 -21z m3434
-137 c19 -32 57 -95 86 -141 28 -46 51 -87 51 -92 0 -14 -29 -27 -131 -55
-116 -33 -143 -49 -244 -146 -155 -149 -193 -160 -276 -80 l-52 50 20 33 c11
18 40 44 66 58 59 31 95 84 108 158 28 155 29 158 64 192 42 41 150 79 222 80
l52 0 34 -57z m197 -324 c0 -5 27 -69 60 -140 33 -71 60 -136 60 -143 0 -26
-241 -113 -388 -141 -99 -18 -183 -11 -208 16 -42 47 -25 181 33 249 82 95
243 164 396 169 27 0 47 -3 47 -10z m144 -441 c9 -40 19 -87 22 -105 l6 -31
-86 -7 c-123 -10 -165 -2 -225 46 -28 23 -51 46 -51 54 0 36 185 113 276 114
l42 1 16 -72z m-2311 37 c74 -38 171 -119 231 -194 117 -146 236 -345 236
-397 0 -68 -73 -130 -229 -195 -250 -104 -568 -126 -1331 -93 -487 21 -596 14
-662 -45 -24 -22 -32 -37 -35 -77 -11 -106 83 -218 248 -297 225 -108 491
-138 903 -102 203 18 271 35 319 80 55 52 102 32 127 -55 13 -47 0 -64 -88
-112 -53 -30 -106 -71 -172 -136 -144 -143 -229 -186 -391 -198 -163 -12 -373
26 -572 106 -240 97 -414 270 -477 475 -30 99 -30 263 1 360 68 220 235 408
495 555 117 66 239 101 889 255 149 35 297 70 330 78 89 21 122 20 178 -8z
m-1428 -1057 c4 -84 5 -172 3 -195 l-3 -42 -83 36 c-137 59 -207 139 -227 260
-6 40 -5 43 22 49 59 16 210 42 244 43 l37 1 7 -152z m278 126 l117 -6 -1 -56
c0 -32 -6 -127 -12 -212 -11 -145 -13 -155 -32 -153 -107 8 -271 25 -274 28
-2 3 -6 97 -9 210 l-5 206 49 -5 c27 -3 102 -8 167 -12z m877 -101 c0 -165
-30 -235 -115 -274 -41 -18 -212 -46 -222 -35 -3 3 6 56 21 118 15 62 34 149
44 193 l18 80 74 6 c41 3 99 6 128 7 l52 2 0 -97z m-345 29 c14 -119 -36 -324
-85 -349 -16 -8 -71 -13 -159 -13 l-134 0 7 93 c3 50 9 142 13 204 l6 112 46
4 c25 2 103 4 173 5 l126 2 7 -58z m788 -921 c-77 -70 -86 -99 -68 -228 29
-213 114 -358 396 -679 68 -78 142 -167 164 -198 39 -56 44 -60 224 -147 101
-50 182 -92 180 -93 -10 -9 -217 -86 -231 -86 -26 0 -218 134 -308 214 -386
346 -608 748 -610 1102 0 92 6 102 80 130 44 16 186 34 204 25 5 -2 -9 -20
-31 -40z m-351 -1081 c11 -13 18 -39 18 -62 0 -35 -3 -40 -35 -54 -46 -19 -61
-18 -84 7 l-20 22 -7 -28 c-4 -15 -4 -53 -1 -85 6 -50 3 -62 -15 -85 -19 -24
-26 -27 -67 -23 -35 4 -51 0 -66 -14 -10 -10 -50 -28 -89 -40 -59 -18 -74 -19
-104 -8 -32 11 -35 11 -60 -20 -23 -26 -33 -31 -62 -28 l-35 3 -5 77 c-8 106
-20 110 -20 7 0 -46 -4 -89 -8 -95 -11 -18 -49 -34 -77 -34 -33 0 -44 29 -38
98 4 35 2 52 -6 52 -7 0 -11 -25 -11 -72 0 -40 -4 -78 -8 -85 -14 -21 -60 -33
-88 -23 -22 9 -30 7 -49 -14 -29 -31 -63 -41 -142 -41 -59 0 -63 -1 -74 -27
-14 -35 -62 -53 -98 -35 -22 10 -26 20 -29 60 -3 53 -18 60 -72 32 -27 -14
-28 -17 -23 -69 5 -50 4 -55 -20 -71 -16 -10 -40 -15 -64 -13 -37 3 -38 4 -41
48 -4 50 -16 70 -42 70 -38 0 -40 57 -4 91 l26 24 -7 121 -6 121 27 22 c19 15
39 21 63 19 l36 -3 9 -127 c8 -121 10 -128 30 -128 11 1 34 6 50 13 l29 13 -2
130 c-3 147 -1 152 70 161 29 4 44 2 50 -8 5 -8 9 -53 9 -101 0 -49 4 -88 8
-88 5 0 17 9 27 20 25 27 118 54 164 46 29 -4 41 -1 54 14 9 11 29 22 44 25
15 3 44 10 64 15 20 6 49 10 64 10 15 0 43 9 61 21 36 22 109 28 127 10 8 -8
18 -5 36 13 35 33 142 76 205 83 28 2 69 13 91 23 95 44 186 48 217 10z m1358
-104 l0 -65 -67 1 c-92 0 -106 4 -93 28 9 17 134 99 153 100 4 0 7 -29 7 -64z
m-5060 -231 c467 -49 1032 -188 1438 -354 186 -76 402 -183 402 -198 0 -31
-95 -183 -114 -183 -6 0 -94 42 -196 93 -102 51 -225 107 -275 124 -95 34
-422 135 -490 152 -22 6 -76 19 -120 31 -285 73 -573 113 -822 114 -178 1
-183 2 -177 21 16 50 94 184 128 217 12 13 23 15 44 8 15 -5 97 -16 182 -25z
m3652 -205 c11 -13 18 -39 18 -62 0 -35 -3 -40 -35 -54 -46 -19 -72 -18 -84 3
-17 31 -26 4 -27 -80 -1 -45 -2 -88 -3 -94 -2 -21 -61 -45 -93 -39 -21 4 -37
0 -57 -15 -16 -12 -58 -29 -94 -39 -64 -18 -99 -17 -125 3 -8 7 -18 2 -32 -16
-55 -70 -206 -103 -256 -56 -21 20 -26 21 -34 9 -5 -8 -10 -17 -10 -21 0 -3
-19 -25 -42 -48 -71 -72 -211 -127 -305 -119 -36 3 -38 5 -41 39 -3 30 2 41
29 63 l31 27 -7 107 c-4 59 -9 111 -12 115 -3 5 -16 -1 -28 -13 -28 -26 -57
-20 -73 16 -17 36 -15 49 14 84 71 84 303 146 399 106 55 -23 72 -85 39 -147
-17 -34 -13 -59 11 -59 9 0 15 9 15 24 0 13 9 35 20 49 28 35 142 79 211 82
37 1 66 8 85 21 42 30 122 61 174 68 25 3 83 22 130 41 97 40 152 42 182 5z
m-3832 -84 c0 -8 -15 -34 -33 -58 -26 -32 -40 -42 -58 -40 -51 6 -99 61 -77
89 19 24 168 32 168 9z m240 -1 c321 -26 1018 -205 1303 -334 37 -16 67 -34
67 -39 0 -5 -18 -43 -39 -85 -60 -117 -138 -303 -163 -392 -19 -66 -23 -105
-23 -220 0 -161 13 -203 84 -274 79 -79 187 -115 446 -150 585 -80 669 -94
855 -143 143 -37 261 -80 410 -147 139 -63 379 -197 387 -216 5 -15 -20 -110
-36 -134 -12 -18 -50 -4 -251 92 -266 127 -388 159 -474 123 -23 -9 -36 -20
-30 -25 5 -4 61 -21 124 -36 409 -98 579 -202 607 -370 17 -101 -4 -123 -120
-132 l-74 -6 -33 49 c-130 192 -249 262 -511 300 -121 18 -161 15 -140 -10 17
-21 84 -43 211 -71 202 -44 344 -130 384 -233 26 -68 22 -107 -15 -133 -51
-36 -107 -35 -271 5 -304 75 -310 75 -501 50 -144 -19 -199 -15 -362 26 -98
25 -140 30 -235 30 -174 0 -488 31 -719 71 -543 93 -983 278 -1211 508 -108
109 -152 201 -186 386 -16 92 -19 379 -4 464 5 31 14 88 21 126 53 325 200
718 337 903 21 27 30 32 56 28 17 -3 65 -8 106 -11z m1522 -427 c106 -51 90
-78 -46 -78 l-69 0 7 42 c6 40 21 68 35 68 3 0 36 -15 73 -32z m-1750 -1694
c20 -9 40 -26 44 -38 5 -12 11 -203 14 -426 l5 -405 55 -8 c58 -8 247 6 261
20 4 4 11 162 15 351 7 341 7 342 28 336 46 -14 46 -9 37 -382 -5 -194 -11
-355 -13 -357 -2 -3 -67 -12 -144 -21 -137 -16 -263 -13 -294 6 -13 8 -16 77
-20 429 -4 314 -8 423 -17 432 -20 20 -122 23 -164 5 -46 -19 -46 -20 -38
-251 4 -99 7 -271 8 -382 l1 -203 -53 0 c-71 0 -98 -27 -105 -104 -5 -67 15
-91 85 -102 89 -13 85 0 82 -215 -3 -226 -5 -221 101 -227 53 -3 76 0 95 12
l25 16 0 190 c0 145 3 190 13 190 6 0 104 2 216 4 l204 4 -6 -184 c-6 -228 -7
-227 105 -232 62 -3 77 -1 98 16 l24 20 7 623 c4 343 8 625 8 625 1 1 15 -1
32 -5 l32 -6 -2 -243 c-1 -134 -5 -250 -8 -258 -3 -8 -1 -14 5 -14 8 0 22 27
61 114 2 5 -1 6 -8 2 -6 -4 -11 -2 -11 4 0 7 7 10 15 6 8 -3 20 3 28 14 8 11
35 29 62 41 61 27 231 37 317 20 87 -18 173 -65 198 -108 22 -37 32 -37 37 -2
15 97 191 157 300 103 39 -20 44 -20 115 -6 l73 15 84 -39 85 -40 76 38 c97
49 162 53 237 15 49 -25 117 -92 154 -152 l19 -30 0 27 c0 15 6 33 13 40 7 7
21 24 30 38 10 14 21 25 25 26 4 0 30 11 57 24 28 12 68 23 90 22 28 0 34 2
21 7 -19 7 -18 8 5 15 13 5 111 11 217 15 204 6 242 1 292 -42 27 -23 45 -21
83 7 61 46 146 57 234 31 45 -13 55 -13 93 0 98 35 204 3 310 -92 72 -64 83
-90 88 -208 6 -159 -18 -190 -148 -189 -111 0 -160 32 -160 102 0 42 -20 92
-36 92 -7 0 -25 -18 -40 -39 -47 -72 -56 -121 -63 -341 -7 -224 -11 -238 -67
-265 -41 -19 -141 -19 -188 0 -24 10 -47 32 -65 60 l-28 44 -24 -25 c-30 -33
-98 -67 -174 -89 -88 -26 -271 -17 -382 19 -45 15 -85 31 -88 36 -4 6 2 7 12
3 19 -6 17 -4 -31 37 -25 21 -28 22 -22 6 5 -15 4 -17 -8 -7 -7 6 -18 24 -24
39 -6 15 -14 36 -18 47 -5 14 -9 2 -14 -43 -8 -68 -29 -100 -85 -129 -43 -23
-132 -22 -178 1 -69 34 -71 42 -57 240 19 265 5 394 -34 318 -21 -41 -34 -133
-50 -344 -14 -198 -17 -205 -91 -239 -54 -25 -102 -24 -155 3 -75 38 -82 62
-69 217 15 177 9 368 -11 381 -18 11 -25 -3 -52 -125 -15 -67 -20 -126 -20
-235 1 -80 -4 -157 -10 -172 -23 -61 -158 -88 -245 -49 -48 22 -63 46 -72 115
l-7 51 -23 -52 c-29 -66 -54 -89 -126 -114 -165 -58 -389 -12 -510 104 l-43
42 -6 -68 c-12 -126 -45 -157 -173 -157 -89 0 -130 18 -163 72 -18 31 -19 44
-13 186 l6 152 -144 0 c-79 0 -150 -4 -157 -9 -11 -7 -13 -43 -10 -169 3 -158
3 -161 -21 -186 -34 -36 -85 -49 -174 -44 -57 2 -83 9 -104 24 -48 36 -53 56
-53 235 l0 167 -27 10 c-16 6 -40 14 -56 18 -15 3 -38 20 -52 36 -21 25 -25
40 -25 95 0 39 6 78 16 99 20 42 68 83 105 91 l29 5 0 162 c0 88 -5 238 -10
331 -12 219 -4 279 40 316 18 16 45 30 59 33 51 9 167 -2 203 -20z m5473 -26
c153 -56 271 -143 329 -242 40 -69 61 -177 46 -244 -13 -61 -63 -139 -123
-192 l-42 -38 76 -75 75 -74 11 59 c15 80 51 148 92 176 77 51 233 83 416 85
179 2 243 -25 282 -118 10 -25 20 -45 23 -45 3 0 18 14 34 30 68 73 193 115
380 129 151 11 243 0 318 -38 46 -23 59 -27 68 -16 6 7 34 23 63 36 65 28 158
31 204 6 31 -17 35 -16 95 4 76 25 122 20 209 -23 74 -37 134 -94 160 -153 11
-24 21 -78 25 -126 4 -70 2 -90 -13 -119 -32 -61 -119 -84 -215 -56 -68 19
-84 37 -92 104 -12 93 -26 104 -63 49 -51 -75 -56 -100 -62 -327 -5 -186 -9
-220 -24 -244 -27 -41 -79 -59 -159 -54 -74 4 -108 22 -143 74 l-19 30 -49
-33 c-83 -56 -246 -91 -365 -78 -146 16 -256 62 -307 129 -30 40 -65 144 -65
196 0 19 -3 52 -7 74 l-6 39 -18 -34 c-25 -46 -23 -70 6 -125 29 -55 31 -83 9
-130 -63 -133 -316 -189 -555 -123 -41 11 -91 31 -112 45 -50 33 -94 104 -108
176 -6 32 -14 58 -18 58 -3 0 -25 -24 -48 -53 -68 -84 -163 -173 -228 -212
-33 -19 -103 -50 -155 -67 -93 -32 -98 -32 -285 -32 -167 -1 -201 2 -280 23
-177 46 -221 78 -219 161 2 55 37 133 72 161 15 11 45 25 68 31 40 11 43 14
49 57 8 52 -4 695 -14 755 l-6 38 -35 -37 c-19 -20 -43 -46 -52 -56 -22 -23
-68 -25 -109 -3 -44 22 -99 140 -99 212 0 55 19 113 48 145 21 24 90 59 162
82 78 26 191 33 465 31 230 -3 243 -4 310 -28z"/>
<path d="M7786 10213 c-15 -15 -3 -35 32 -50 20 -10 39 -19 41 -20 2 -1 -17
-27 -43 -57 -46 -54 -47 -55 -114 -61 -74 -7 -132 -28 -158 -56 -21 -23 -25
-23 131 -5 125 15 155 22 155 37 0 5 16 26 35 46 42 44 61 101 42 121 -18 17
-113 53 -121 45z"/>
<path d="M7115 10119 c-22 -12 -53 -32 -68 -45 -16 -13 -53 -31 -82 -39 -60
-18 -58 -15 -75 -125 -6 -41 -14 -83 -16 -92 -7 -25 10 -22 56 8 45 30 57 60
42 102 -13 37 -6 46 48 70 25 11 87 40 138 64 78 37 91 46 79 57 -28 22 -80
22 -122 0z"/>
<path d="M6095 10023 c-45 -11 -57 -46 -33 -98 10 -23 16 -25 74 -25 l62 0 7
52 c6 43 5 54 -11 65 -18 13 -60 15 -99 6z"/>
<path d="M6448 9741 c-38 -8 -69 -37 -62 -56 9 -22 77 -55 113 -55 28 0 30 3
37 47 6 38 4 49 -12 60 -19 14 -32 15 -76 4z"/>
<path d="M5746 9620 c-38 -34 -56 -89 -48 -154 4 -33 10 -40 46 -57 43 -20 76
-24 76 -11 0 5 -13 21 -30 37 -34 32 -36 44 -16 83 18 35 30 132 17 132 -6 0
-26 -14 -45 -30z"/>
<path d="M5984 9625 c-16 -25 -14 -74 5 -104 11 -17 84 -6 106 16 23 22 18 61
-11 88 -36 33 -78 33 -100 0z"/>
<path d="M7986 9571 c-3 -4 1 -33 9 -63 45 -174 193 -448 470 -873 166 -253
177 -363 48 -474 -61 -52 -147 -97 -298 -155 -66 -26 -131 -51 -144 -57 -58
-24 -428 -130 -508 -145 -106 -20 -241 -22 -303 -5 -68 19 -132 65 -179 128
-24 32 -101 175 -171 318 -129 263 -202 384 -380 628 -71 97 -91 118 -123 128
-20 7 -40 10 -43 6 -7 -6 50 -84 126 -172 119 -139 226 -318 360 -604 114
-243 141 -290 207 -362 96 -103 164 -131 323 -130 121 1 234 21 447 81 235 67
400 127 552 201 122 60 155 81 207 133 76 76 93 122 75 205 -17 83 -58 161
-190 362 -128 194 -197 320 -304 559 -60 134 -124 257 -149 288 -12 14 -25 16
-32 3z"/>
<path d="M7110 9449 c-66 -58 -107 -72 -217 -79 -120 -7 -147 -21 -88 -46 56
-23 160 -22 216 3 69 31 149 110 149 148 0 13 -28 1 -60 -26z"/>
<path d="M6690 8984 c0 -22 53 -83 149 -172 192 -179 284 -345 380 -685 39
-137 79 -217 107 -217 18 0 18 0 -10 105 -108 402 -348 818 -546 945 -43 28
-80 39 -80 24z"/>
<path d="M8885 7839 c-145 -19 -345 -79 -863 -258 -293 -101 -400 -144 -483
-192 -77 -44 -173 -131 -167 -150 4 -13 100 -38 143 -38 16 0 13 6 -19 33 -25
22 -36 38 -31 46 15 25 301 150 575 253 429 161 812 265 936 255 58 -5 65 2
38 40 -16 24 -22 24 -129 11z"/>
<path d="M7989 7777 c-30 -12 -71 -32 -90 -44 -36 -23 -105 -110 -96 -120 7
-6 66 29 139 81 50 36 102 48 196 46 103 -3 112 -1 112 18 0 28 -43 42 -128
41 -55 0 -93 -6 -133 -22z"/>
<path d="M2120 6953 c-90 -11 -172 -66 -185 -124 -9 -42 0 -50 40 -33 49 20
61 18 75 -15 6 -16 22 -39 35 -51 20 -19 32 -22 70 -17 67 7 78 23 29 42 -74
29 -89 40 -92 68 -5 39 10 53 84 77 35 12 64 26 64 31 0 13 -75 27 -120 22z"/>
<path d="M3461 7947 c-5 -12 -10 -43 -12 -67 l-4 -45 35 3 c73 5 100 13 111
33 9 17 4 26 -29 60 -47 46 -87 53 -101 16z"/>
<path d="M4416 4425 c-17 -9 -41 -13 -56 -10 -18 4 -31 0 -44 -13 -15 -17 -16
-31 -8 -126 9 -111 17 -131 45 -120 14 5 17 20 17 83 0 125 43 183 94 125 20
-24 26 -26 40 -15 23 19 20 57 -6 75 -28 20 -45 20 -82 1z"/>
<path d="M4170 4366 c-104 -29 -140 -64 -140 -137 0 -117 26 -148 106 -128 74
18 124 46 124 69 0 23 -8 25 -35 6 -37 -25 -96 -39 -108 -27 -15 15 7 31 45
31 16 0 41 12 58 28 26 22 32 37 37 84 4 39 2 62 -7 73 -14 17 -20 17 -80 1z
m30 -96 c0 -35 -4 -42 -27 -51 -42 -16 -68 -8 -71 22 -4 31 37 69 74 69 21 0
24 -5 24 -40z"/>
<path d="M4140 4260 c-6 -12 -9 -25 -5 -28 9 -9 40 13 40 28 0 23 -23 22 -35
0z"/>
<path d="M3283 4309 c-8 -8 -10 -51 -6 -139 l6 -128 -43 -22 c-23 -12 -61 -22
-83 -23 l-42 -2 -10 130 c-9 120 -12 130 -31 133 -41 6 -47 -18 -36 -145 9
-117 9 -118 -14 -140 -30 -28 -30 -40 -1 -49 31 -9 37 -22 37 -75 0 -51 17
-67 51 -49 16 9 19 22 19 74 l0 64 73 19 c83 23 90 19 81 -44 -5 -36 -3 -43
16 -53 53 -28 61 41 44 348 -6 106 -8 112 -28 112 -12 0 -27 -5 -33 -11z"/>
<path d="M3866 4259 c-29 -25 -39 -28 -55 -20 -30 16 -56 13 -76 -9 -13 -14
-22 -17 -29 -10 -16 16 -44 12 -54 -7 -10 -19 0 -196 13 -225 9 -22 31 -23 39
-2 3 9 6 46 6 82 0 83 7 110 30 117 41 13 50 -3 50 -91 0 -77 2 -84 20 -84 29
0 40 30 40 107 0 52 5 74 20 93 16 20 22 23 37 14 14 -9 19 -27 21 -93 3 -82
9 -92 42 -71 22 13 18 171 -4 205 -22 34 -58 32 -100 -6z"/>
<path d="M3473 4177 c-57 -21 -68 -40 -72 -127 -4 -102 11 -130 68 -130 56 0
100 19 115 49 21 40 28 115 16 160 -16 59 -55 74 -127 48z m65 -59 c13 -13 14
-77 3 -118 -6 -21 -13 -25 -46 -25 l-40 0 -3 66 c-3 60 -1 67 20 77 31 14 51
15 66 0z"/>
<path d="M3480 4046 c0 -31 4 -56 9 -56 34 0 42 102 9 108 -15 3 -18 -5 -18
-52z"/>
<path d="M4354 3875 c-10 -8 -33 -15 -51 -15 -21 0 -36 -7 -42 -19 -6 -10 -8
-20 -6 -22 2 -3 5 -51 6 -107 l1 -103 27 3 c25 3 26 5 31 93 8 127 38 168 85
117 20 -22 28 -25 43 -16 23 15 27 48 7 68 -20 20 -75 21 -101 1z"/>
<path d="M4084 3799 c-63 -24 -94 -52 -95 -87 -3 -68 4 -148 14 -161 23 -28
186 16 201 54 9 24 -11 26 -51 5 -38 -20 -103 -27 -103 -11 0 5 22 14 50 21
63 15 97 49 106 106 10 69 0 94 -39 93 -17 0 -55 -9 -83 -20z m66 -78 c0 -45
-11 -57 -62 -66 -30 -6 -38 -4 -47 13 -18 34 38 89 92 91 13 1 17 -7 17 -38z"/>
<path d="M4075 3710 c-11 -18 13 -36 31 -25 9 6 16 15 17 20 3 14 -40 18 -48
5z"/>
<path d="M3410 3781 c-64 -21 -162 -69 -172 -85 -4 -6 -8 -21 -8 -33 0 -31 30
-30 60 2 42 45 47 35 54 -102 4 -71 9 -144 12 -164 5 -34 3 -36 -28 -45 -36
-11 -49 -40 -22 -51 9 -3 45 -1 78 6 129 27 228 97 262 186 15 42 16 46 0 70
-9 14 -28 30 -42 35 -29 11 -30 18 -5 44 11 12 26 34 35 50 13 26 13 33 0 57
-8 16 -23 33 -33 39 -30 15 -130 11 -191 -9z m145 -45 c14 -9 25 -25 25 -35 0
-35 -133 -130 -164 -118 -14 6 -29 117 -20 141 14 36 111 43 159 12z m19 -186
c53 -20 20 -96 -66 -154 -77 -53 -84 -50 -92 37 -4 41 -4 81 -1 90 11 28 112
45 159 27z"/>
<path d="M3437 3713 c-11 -10 -8 -81 3 -88 11 -7 70 26 90 50 10 12 10 18 0
30 -12 15 -81 21 -93 8z"/>
<path d="M3463 3523 c-17 -3 -23 -11 -23 -32 0 -48 12 -91 25 -91 7 0 33 19
59 41 60 53 61 83 1 85 -22 1 -50 0 -62 -3z"/>
<path d="M3806 3715 c-93 -38 -101 -50 -101 -149 0 -107 10 -121 79 -111 83
11 163 62 138 87 -9 9 -16 8 -29 -4 -20 -17 -77 -38 -104 -38 -35 0 -8 28 34
35 57 10 93 49 102 109 9 59 -5 96 -37 96 -13 0 -50 -11 -82 -25z m66 -70 c-8
-58 -12 -64 -52 -75 -22 -6 -45 -8 -50 -5 -12 7 -13 45 -2 60 31 43 110 58
104 20z"/>
<path d="M3800 3610 c-8 -16 -8 -20 3 -20 8 0 22 9 32 20 18 19 17 20 -3 20
-12 0 -26 -9 -32 -20z"/>
<path d="M1659 1049 c-105 -11 -150 -43 -175 -123 -38 -126 -58 -502 -30 -569
29 -70 132 -129 263 -152 95 -16 164 -10 222 20 34 17 71 61 71 84 0 9 6 25
14 36 27 41 56 152 62 245 11 181 -42 361 -124 415 -59 39 -181 56 -303 44z
m173 -230 c34 -18 48 -70 48 -176 0 -114 -28 -250 -56 -270 -50 -37 -185 13
-200 73 -18 71 22 348 53 372 21 15 127 16 155 1z"/>
<path d="M1717 766 c-30 -31 -49 -303 -23 -325 19 -16 78 -24 94 -13 41 27 54
291 16 333 -20 22 -67 25 -87 5z"/>
<path d="M2223 1050 c-51 -21 -51 -26 -46 -429 l6 -373 31 -19 c40 -24 94 -24
126 1 25 19 25 20 31 222 6 174 10 212 29 265 41 117 105 138 163 53 20 -29
23 -193 6 -385 -11 -131 -6 -154 38 -174 55 -25 119 -7 144 41 7 12 15 101 19
202 6 144 12 195 30 249 38 117 88 154 145 105 41 -36 46 -80 34 -327 l-10
-224 23 -24 c20 -22 30 -24 71 -20 61 5 87 30 98 94 5 26 11 154 15 283 7 251
3 289 -39 351 -34 51 -123 109 -166 109 -55 0 -133 -42 -176 -93 l-38 -46 -59
54 c-80 72 -109 85 -161 73 -23 -5 -68 -24 -99 -43 l-58 -34 0 39 c0 29 -5 42
-19 50 -24 12 -107 12 -138 0z"/>
<path d="M3564 1046 c-152 -29 -219 -61 -244 -119 -51 -115 -54 -492 -5 -587
34 -66 164 -119 310 -127 193 -11 340 53 337 147 -1 33 -39 100 -58 100 -6 0
-35 -13 -65 -30 -79 -42 -179 -57 -251 -36 -57 16 -108 49 -96 61 4 4 24 1 45
-6 22 -8 82 -14 143 -14 98 0 109 2 160 30 49 27 59 38 88 98 45 95 62 167 62
270 0 108 -25 179 -74 205 -41 22 -252 27 -352 8z m181 -190 c16 -11 20 -29
23 -88 8 -151 -22 -182 -168 -176 -47 2 -91 7 -98 12 -15 9 -15 117 2 171 12
43 20 47 141 80 65 18 77 18 100 1z"/>
<path d="M3665 800 c18 -9 17 -10 -7 -7 -15 2 -25 0 -22 -4 3 -5 -8 -9 -24 -9
-40 0 -56 -22 -56 -78 l-1 -47 68 2 c38 0 72 4 75 8 4 4 7 37 7 73 l0 67 -30
2 c-26 2 -27 1 -10 -7z"/>
<path d="M4134 1046 c-17 -8 -34 -22 -39 -32 -8 -20 -7 -747 1 -769 15 -37
126 -48 165 -16 23 19 24 24 30 228 8 247 25 321 89 385 47 47 83 50 126 10
26 -23 32 -38 38 -90 8 -70 13 -73 110 -76 78 -2 86 9 86 114 0 80 -2 90 -29
127 -31 43 -88 91 -138 117 -62 31 -166 16 -230 -34 -32 -25 -43 -25 -43 -2 0
48 -94 69 -166 38z"/>
<path d="M3989 530 c-10 -34 -9 -43 7 -67 l18 -28 8 35 c9 40 2 100 -12 100
-5 0 -15 -18 -21 -40z"/>
<path d="M5575 1654 c-96 -14 -217 -48 -270 -77 -77 -43 -99 -80 -90 -157 6
-60 47 -140 71 -140 9 0 50 27 91 60 41 33 87 67 103 75 l28 14 6 -42 c9 -50
25 -926 18 -980 l-4 -38 -45 27 c-56 33 -84 27 -119 -25 -35 -54 -42 -113 -17
-138 48 -48 305 -89 493 -80 166 9 275 44 392 126 128 88 228 255 228 378 0
84 -80 197 -180 254 -33 19 -60 37 -60 40 0 3 19 15 42 25 61 27 144 113 175
180 45 99 17 196 -89 310 -119 126 -296 185 -578 189 -91 2 -178 1 -195 -1z
m422 -199 c114 -34 223 -147 223 -229 0 -52 -41 -105 -106 -136 -62 -31 -214
-69 -300 -77 l-71 -6 -6 69 c-12 126 -8 392 6 398 22 10 201 -3 254 -19z m-2
-635 c83 -12 115 -24 174 -63 45 -31 80 -91 81 -137 0 -79 -99 -198 -212 -255
-75 -37 -197 -68 -249 -63 l-34 3 -8 200 c-4 110 -6 225 -5 255 l3 55 40 6
c64 10 135 9 210 -1z"/>
<path d="M5808 1414 c-5 -4 -8 -78 -8 -164 0 -189 0 -189 92 -170 162 32 279
105 264 167 -11 43 -95 117 -162 143 -60 24 -173 38 -186 24z"/>
<path d="M5824 773 c-6 -4 -13 -21 -17 -38 -6 -33 9 -364 17 -372 9 -10 111
19 181 52 105 48 185 140 185 212 0 36 -72 103 -135 126 -53 20 -213 34 -231
20z"/>
<path d="M6855 1059 c-145 -21 -246 -68 -264 -121 -24 -72 -31 -150 -31 -318
0 -185 13 -275 48 -313 25 -28 99 -63 173 -82 90 -24 261 -17 341 14 57 22
118 77 118 107 0 21 -28 85 -46 106 -15 16 -19 15 -68 -12 -28 -16 -80 -37
-115 -46 -54 -13 -74 -14 -125 -4 -62 12 -116 35 -128 53 -14 22 4 26 45 9 31
-12 71 -17 147 -17 94 0 110 3 155 26 98 51 155 193 155 383 0 138 -36 199
-129 216 -63 12 -191 11 -276 -1z m169 -221 c37 -59 26 -176 -21 -220 -23 -21
-33 -23 -128 -23 -57 0 -108 4 -112 9 -4 4 -7 42 -6 84 3 98 18 120 104 149
87 30 144 30 163 1z"/>
<path d="M6863 785 c-35 -15 -46 -42 -41 -96 3 -34 3 -34 61 -37 41 -2 66 2
83 13 22 14 25 22 22 73 l-3 57 -45 2 c-25 2 -59 -4 -77 -12z"/>
<path d="M7671 1060 c-96 -14 -206 -50 -241 -79 -45 -37 -60 -110 -67 -321 -7
-232 7 -308 67 -362 68 -61 150 -83 305 -83 150 0 214 16 270 70 40 37 47 84
20 135 -23 45 -43 51 -82 24 -92 -62 -229 -75 -326 -31 -32 14 -57 31 -57 36
0 15 19 14 73 -5 34 -11 73 -15 135 -12 72 2 97 8 147 33 54 27 63 36 93 96
62 123 79 337 35 426 -29 60 -65 74 -195 78 -62 2 -142 0 -177 -5z m157 -213
c6 -7 16 -35 22 -61 12 -56 -1 -146 -25 -166 -25 -20 -137 -34 -196 -24 l-54
9 0 86 c0 72 3 91 19 108 39 43 209 78 234 48z"/>
<path d="M7690 792 c-50 -16 -55 -21 -63 -55 -5 -21 -6 -49 -3 -62 6 -23 11
-25 61 -25 29 0 65 4 80 10 25 9 26 13 23 77 -4 80 -9 83 -98 55z"/>
<path d="M8214 1051 c-23 -10 -44 -26 -47 -36 -4 -9 -7 -187 -7 -396 l0 -378
30 -16 c37 -19 103 -19 140 0 17 9 30 17 31 18 1 1 4 99 9 217 7 196 10 221
33 284 29 79 78 136 117 136 41 0 86 -55 94 -115 7 -59 20 -70 85 -79 90 -12
121 15 121 106 0 83 -17 126 -69 178 -108 108 -216 125 -319 51 l-40 -30 -13
30 c-21 51 -91 64 -165 30z"/>
<path d="M8072 550 c-25 -44 -23 -67 8 -95 20 -18 20 -17 20 58 0 43 -1 77 -2
77 -2 0 -13 -18 -26 -40z"/>
</g>
</svg>
